<?xml version="1.0" encoding="UTF-8"?>
<svg id="Layer_2" data-name="Layer 2" xmlns="http://www.w3.org/2000/svg" viewBox="0 0 1703.99 343.66">
  <defs>
    <style>
      .cls-1, .cls-2 {
        fill: #fff;
      }

      .cls-2 {
        font-family: Poppins-Thin, Poppins;
        font-size: 72px;
        font-weight: 200;
      }
    </style>
  </defs>
  <g id="Layer_1-2" data-name="Layer 1">
    <path class="cls-1" d="m24.77,213.12c5.95,6.08,2.68,13.77-3.22,18.39-6.07,5.93-13.79,2.69-18.39-3.23-5.94-6.06-2.68-13.78,3.22-18.39,6.07-5.94,13.78-2.68,18.39,3.22Zm343.28-76.62c-10.22-21.79-19.6-60.18-52.3-46.77l-92.47,41.5c-13.25,5.94-19.16,21.49-13.22,34.74,14.84,30.28,46.01,7.79,67.04-.88,13.72-6.17,28.61,6.65,24.14,21-6.47,20.09-20.06,34.14-40.96,43.61-94.9,50.1-172.92-111.17-75.16-153.15,19.01-8.4,37.38-10.34,55.23-2.25,13.78,7.59,31.13-3.64,43.76-9.05,17.87-8.01,21.39-31.04,8.81-44.02-11.91-10.19-27.51-14.91-43.05-18.39-28.14-4.74-56.37-4.07-84.21,6.12-61.9,21.83-95.46,80.12-99.66,141.33l-36.42,36.42c-4.19,4.18-4.19,10.97,0,15.16,5.97,5.97,15.64,5.97,21.61,0l31.66-31.66c3.83-3,9.69-2.12,13.2,1.35,4.31,3.56,8.15,9.13,5.63,14.71-.18.48-.64,1.17-1,1.52l-48.64,48.62c-5.96,6.1-2.65,13.76,3.23,18.4,4.19,4.18,10.98,4.18,15.16,0l50.48-50.49c3.82-3,9.69-2.14,13.2,1.35,13.4,11.36,3.11,18.63-5.98,27.6.24-.79-26.41,25.79-27.26,26.82-5.97,5.97-5.97,15.65,0,21.61,4.19,4.19,10.98,4.19,15.16,0,1.01-1.16,30.83-30.35,30.33-30.94,8.14-9.13,14.73-13.44,24.18-2.56,4.18,4.19,4.18,10.98,0,15.16l-24.79,24.79s.01,0,.01.01c-7.03,6.1-4.36,14.28,2.19,19.42,4.19,4.18,10.98,4.18,15.16,0l30.54-30.54c5.51-4.38,12.61-.26,16.41,4.59,6.02,6.16,2.57,13.89-3.37,18.53-2.75,2.75-1.03,7.48,2.85,7.78,69.34,7.05,138.59-44.1,154.68-110.05,5-19.44,7.76-40.89,3.8-61.39Zm-244.63,174.01c-6.12,6.84-21.5,16.51-11.63,26.78,4.62,5.91,12.33,9.17,18.39,3.23,6.12-6.85,21.51-16.52,11.61-26.78-4.61-5.91-12.32-9.16-18.38-3.22Zm-47.8-25.18l-17.53,17.54c-4.19,4.18-4.19,10.98,0,15.16,4.62,5.9,12.32,9.17,18.39,3.22l17.53-17.53c4.19-4.19,4.19-10.97,0-15.16-4.61-5.91-12.32-9.16-18.4-3.24Z"/>
    <path class="cls-1" d="m393.76,285.58V110.22h74.91c24.38,0,43.34,5.64,56.87,16.91,13.53,11.27,20.29,26.85,20.29,46.72,0,13.03-3.09,24.26-9.27,33.69-6.18,9.44-14.95,16.66-26.3,21.67-11.36,5.01-24.89,7.52-40.58,7.52h-53.36l18.04-17.79v66.64h-40.58Zm40.58-62.13l-18.04-19.04h51.11c12.53,0,21.88-2.71,28.06-8.14,6.18-5.42,9.27-12.9,9.27-22.42s-3.09-17.2-9.27-22.55c-6.18-5.34-15.53-8.02-28.06-8.02h-51.11l18.04-19.29v99.46Zm70.9,62.13l-43.84-63.63h43.34l44.34,63.63h-43.84Zm157.82,3.01c-13.86,0-26.68-2.25-38.45-6.76-11.77-4.51-21.96-10.85-30.56-19.04-8.6-8.18-15.28-17.79-20.04-28.81-4.76-11.02-7.14-23.05-7.14-36.08s2.38-25.05,7.14-36.07c4.76-11.02,11.48-20.62,20.17-28.81,8.68-8.18,18.87-14.53,30.56-19.04,11.69-4.51,24.38-6.76,38.08-6.76s26.59,2.25,38.21,6.76c11.61,4.51,21.71,10.86,30.31,19.04,8.6,8.19,15.32,17.75,20.17,28.68,4.84,10.94,7.26,23.01,7.26,36.2s-2.42,25.1-7.26,36.2c-4.85,11.11-11.57,20.71-20.17,28.81-8.6,8.1-18.71,14.41-30.31,18.91-11.61,4.51-24.26,6.76-37.96,6.76Zm-.25-34.57c7.85,0,15.07-1.34,21.67-4.01,6.6-2.67,12.4-6.51,17.41-11.52,5.01-5.01,8.89-10.94,11.65-17.79,2.76-6.84,4.13-14.44,4.13-22.8s-1.38-15.95-4.13-22.8c-2.76-6.85-6.6-12.78-11.52-17.79-4.93-5.01-10.73-8.85-17.41-11.52-6.68-2.67-13.95-4.01-21.8-4.01s-15.07,1.34-21.67,4.01c-6.6,2.67-12.4,6.51-17.41,11.52-5.01,5.01-8.89,10.94-11.65,17.79-2.76,6.85-4.13,14.45-4.13,22.8s1.38,15.74,4.13,22.67c2.76,6.93,6.6,12.9,11.52,17.91,4.92,5.01,10.73,8.86,17.41,11.52,6.68,2.67,13.94,4.01,21.79,4.01Zm162.84,31.57l-57.37-175.36h42.09l49.85,155.32h-21.04l52.11-155.32h37.58l50.1,155.32h-20.29l51.11-155.32h38.83l-57.37,175.36h-43.59l-44.34-136.28h11.52l-45.59,136.28h-43.59Zm282.34,0v-142.3h-56.12v-33.07h152.82v33.07h-56.12v142.3h-40.58Zm118.5,0V110.22h40.58v175.36h-40.58Zm167.34,3.01c-13.86,0-26.68-2.25-38.45-6.76-11.77-4.51-21.96-10.85-30.56-19.04-8.6-8.18-15.28-17.79-20.04-28.81-4.76-11.02-7.14-23.05-7.14-36.08s2.38-25.05,7.14-36.07c4.76-11.02,11.48-20.62,20.17-28.81,8.68-8.18,18.87-14.53,30.56-19.04,11.69-4.51,24.38-6.76,38.08-6.76s26.59,2.25,38.21,6.76c11.61,4.51,21.71,10.86,30.31,19.04,8.6,8.19,15.32,17.75,20.17,28.68,4.84,10.94,7.26,23.01,7.26,36.2s-2.42,25.1-7.26,36.2c-4.85,11.11-11.57,20.71-20.17,28.81-8.6,8.1-18.71,14.41-30.31,18.91-11.61,4.51-24.26,6.76-37.96,6.76Zm-.25-34.57c7.85,0,15.07-1.34,21.67-4.01,6.6-2.67,12.4-6.51,17.41-11.52,5.01-5.01,8.89-10.94,11.65-17.79,2.76-6.84,4.13-14.44,4.13-22.8s-1.38-15.95-4.13-22.8c-2.76-6.85-6.6-12.78-11.52-17.79-4.93-5.01-10.73-8.85-17.41-11.52-6.68-2.67-13.95-4.01-21.8-4.01s-15.07,1.34-21.67,4.01c-6.6,2.67-12.4,6.51-17.41,11.52-5.01,5.01-8.89,10.94-11.65,17.79-2.76,6.85-4.13,14.45-4.13,22.8s1.38,15.74,4.13,22.67c2.76,6.93,6.6,12.9,11.52,17.91,4.92,5.01,10.73,8.86,17.41,11.52,6.68,2.67,13.94,4.01,21.79,4.01Zm126.51,31.57V110.22h33.57l103.46,126.26h-16.28v-126.26h40.08v175.36h-33.32l-103.72-126.26h16.28v126.26h-40.08Z"/>
    <text class="cls-2" transform="translate(393.25 86.92)"><tspan x="0" y="0">Sell Smart, Grow Faster</tspan></text>
  </g>
</svg>