<?xml version="1.0" encoding="UTF-8"?>
<svg xmlns="http://www.w3.org/2000/svg" xmlns:xlink="http://www.w3.org/1999/xlink" viewBox="0 0 684.74 720.72">
  <defs>
    <style>
      .cls-1 {
        fill: #ffa72e;
      }

      .cls-2, .cls-3 {
        fill: #fff;
      }

      .cls-4 {
        fill: #2db9e7;
      }

      .cls-4, .cls-5 {
        opacity: .4;
      }

      .cls-6 {
        fill: url(#Degradado_sin_nombre_31-2);
      }

      .cls-7 {
        fill: url(#Degradado_sin_nombre_31-4);
      }

      .cls-8 {
        fill: url(#Degradado_sin_nombre_56-2);
      }

      .cls-9 {
        fill: #bfbfbf;
      }

      .cls-10 {
        fill: url(#Degradado_sin_nombre_56-3);
      }

      .cls-11 {
        fill: url(#Degradado_sin_nombre_66-2);
      }

      .cls-3 {
        mix-blend-mode: screen;
        opacity: .1;
      }

      .cls-12 {
        fill: url(#radial-gradient-2);
      }

      .cls-12, .cls-13, .cls-14, .cls-15, .cls-5, .cls-16 {
        mix-blend-mode: multiply;
      }

      .cls-17 {
        isolation: isolate;
      }

      .cls-18 {
        fill: url(#Degradado_sin_nombre_12-2);
      }

      .cls-19 {
        fill: #2d2e83;
      }

      .cls-20 {
        stroke: #e30613;
        stroke-linecap: round;
        stroke-linejoin: round;
      }

      .cls-20, .cls-21, .cls-22 {
        fill: none;
      }

      .cls-23 {
        fill: #587ae1;
      }

      .cls-24 {
        fill: #e94e1b;
      }

      .cls-25 {
        fill: url(#Degradado_sin_nombre_38);
      }

      .cls-13 {
        fill: url(#radial-gradient);
      }

      .cls-26 {
        fill: url(#Degradado_sin_nombre_31);
      }

      .cls-27 {
        fill: #d60b52;
      }

      .cls-28, .cls-16 {
        fill: #9d9d9c;
      }

      .cls-21 {
        stroke: #36a9e1;
      }

      .cls-21, .cls-22 {
        stroke-miterlimit: 10;
      }

      .cls-29 {
        fill: #ffe752;
      }

      .cls-30 {
        fill: #29235c;
      }

      .cls-31 {
        fill: url(#Degradado_sin_nombre_31-6);
      }

      .cls-32 {
        fill: #dadada;
      }

      .cls-33 {
        fill: #fff800;
      }

      .cls-34 {
        fill: #eaeaea;
      }

      .cls-35 {
        fill: url(#Degradado_sin_nombre_67-2);
      }

      .cls-36 {
        fill: url(#Degradado_sin_nombre_31-3);
      }

      .cls-14 {
        fill: #c8d5db;
      }

      .cls-15 {
        opacity: .5;
      }

      .cls-37 {
        fill: #212121;
      }

      .cls-38 {
        fill: #878787;
      }

      .cls-5 {
        fill: #301842;
      }

      .cls-39 {
        fill: url(#Degradado_sin_nombre_31-5);
      }

      .cls-40 {
        fill: url(#Degradado_sin_nombre_40);
      }

      .cls-41 {
        fill: #c25700;
      }

      .cls-22 {
        stroke: #222;
        stroke-width: .61px;
      }

      .cls-16 {
        opacity: .3;
      }

      .cls-42 {
        fill: url(#Degradado_sin_nombre_79);
      }

      .cls-43 {
        fill: url(#Degradado_sin_nombre_56);
      }

      .cls-44 {
        fill: url(#Degradado_sin_nombre_31-7);
      }

      .cls-45 {
        fill: #ca9e67;
      }

      .cls-46 {
        fill: url(#Degradado_sin_nombre_66);
      }

      .cls-47 {
        fill: url(#Degradado_sin_nombre_85);
      }

      .cls-48 {
        opacity: .25;
      }

      .cls-49 {
        fill: url(#Degradado_sin_nombre_23);
      }

      .cls-50 {
        fill: url(#Degradado_sin_nombre_12);
      }

      .cls-51 {
        fill: url(#Degradado_sin_nombre_67);
      }
    </style>
    <linearGradient id="Degradado_sin_nombre_67" data-name="Degradado sin nombre 67" x1="1407.1" y1="327.99" x2="1424.48" y2="366.91" gradientTransform="translate(-878.48)" gradientUnits="userSpaceOnUse">
      <stop offset="0" stop-color="#ededed"/>
      <stop offset=".16" stop-color="#d7d7d7"/>
      <stop offset=".54" stop-color="#acacac"/>
      <stop offset=".83" stop-color="#919191"/>
      <stop offset="1" stop-color="#878787"/>
    </linearGradient>
    <linearGradient id="Degradado_sin_nombre_66" data-name="Degradado sin nombre 66" x1="1343.64" y1="426.79" x2="1386.71" y2="441.52" gradientTransform="translate(-878.48)" gradientUnits="userSpaceOnUse">
      <stop offset="0" stop-color="#1d71b8"/>
      <stop offset="1" stop-color="#662483"/>
    </linearGradient>
    <linearGradient id="Degradado_sin_nombre_67-2" data-name="Degradado sin nombre 67" x1="1465.35" y1="354.89" x2="1480.47" y2="298.59" xlink:href="#Degradado_sin_nombre_67"/>
    <linearGradient id="Degradado_sin_nombre_66-2" data-name="Degradado sin nombre 66" x1="1447.39" y1="318.35" x2="1436.81" y2="473.27" xlink:href="#Degradado_sin_nombre_66"/>
    <linearGradient id="Degradado_sin_nombre_56" data-name="Degradado sin nombre 56" x1="-77.9" y1="511.84" x2="-4.64" y2="511.84" gradientTransform="translate(606.85) rotate(-180) scale(1 -1)" gradientUnits="userSpaceOnUse">
      <stop offset=".05" stop-color="#ca9e67"/>
      <stop offset="1" stop-color="#ad7633"/>
    </linearGradient>
    <linearGradient id="Degradado_sin_nombre_56-2" data-name="Degradado sin nombre 56" x1="-4.64" x2="68.62" xlink:href="#Degradado_sin_nombre_56"/>
    <linearGradient id="Degradado_sin_nombre_56-3" data-name="Degradado sin nombre 56" x1="20.25" y1="421.92" x2="-31.68" y2="477.14" xlink:href="#Degradado_sin_nombre_56"/>
    <linearGradient id="Degradado_sin_nombre_31" data-name="Degradado sin nombre 31" x1="91.27" y1="615.76" x2="347.68" y2="615.76" gradientTransform="translate(606.85) rotate(-180) scale(1 -1)" gradientUnits="userSpaceOnUse">
      <stop offset="0" stop-color="#ededed"/>
      <stop offset=".04" stop-color="#eaeaea"/>
      <stop offset=".64" stop-color="#d0d0d0"/>
      <stop offset="1" stop-color="#c6c6c6"/>
    </linearGradient>
    <linearGradient id="Degradado_sin_nombre_31-2" data-name="Degradado sin nombre 31" x1="314.78" y1="597.87" x2="314.78" y2="476.94" xlink:href="#Degradado_sin_nombre_31"/>
    <linearGradient id="Degradado_sin_nombre_31-3" data-name="Degradado sin nombre 31" x1="311.55" y1="490.47" x2="311.55" y2="524.94" xlink:href="#Degradado_sin_nombre_31"/>
    <linearGradient id="Degradado_sin_nombre_31-4" data-name="Degradado sin nombre 31" x1="341.59" y1="433.64" x2="338.75" y2="504.71" xlink:href="#Degradado_sin_nombre_31"/>
    <linearGradient id="Degradado_sin_nombre_23" data-name="Degradado sin nombre 23" x1="314.78" y1="412.21" x2="314.78" y2="263.51" gradientTransform="translate(606.85) rotate(-180) scale(1 -1)" gradientUnits="userSpaceOnUse">
      <stop offset="0" stop-color="#36a9e1"/>
      <stop offset=".14" stop-color="#2e97d1"/>
      <stop offset=".52" stop-color="#1b6ca8"/>
      <stop offset=".82" stop-color="#0f5190"/>
      <stop offset="1" stop-color="#0b4787"/>
    </linearGradient>
    <linearGradient id="Degradado_sin_nombre_31-5" data-name="Degradado sin nombre 31" x1="163.04" y1="198.73" x2="166.83" y2="157.03" xlink:href="#Degradado_sin_nombre_31"/>
    <linearGradient id="Degradado_sin_nombre_12" data-name="Degradado sin nombre 12" x1="221.09" y1="237.47" x2="225.35" y2="187.01" gradientTransform="translate(606.85) rotate(-180) scale(1 -1)" gradientUnits="userSpaceOnUse">
      <stop offset="0" stop-color="#d60b52"/>
      <stop offset=".05" stop-color="#d00a51"/>
      <stop offset=".47" stop-color="#a50a4c"/>
      <stop offset=".81" stop-color="#8a0a4a"/>
      <stop offset="1" stop-color="#800a49"/>
    </linearGradient>
    <linearGradient id="Degradado_sin_nombre_31-6" data-name="Degradado sin nombre 31" x1="279.31" y1="264.91" x2="283.57" y2="220.13" xlink:href="#Degradado_sin_nombre_31"/>
    <linearGradient id="Degradado_sin_nombre_12-2" data-name="Degradado sin nombre 12" x1="331.43" y1="300.54" x2="343.51" y2="245.81" xlink:href="#Degradado_sin_nombre_12"/>
    <linearGradient id="Degradado_sin_nombre_31-7" data-name="Degradado sin nombre 31" x1="392.74" y1="338.24" x2="399.85" y2="287.78" xlink:href="#Degradado_sin_nombre_31"/>
    <linearGradient id="Degradado_sin_nombre_38" data-name="Degradado sin nombre 38" x1="533.59" y1="419.65" x2="533.59" y2="553.67" gradientTransform="translate(606.85) rotate(-180) scale(1 -1)" gradientUnits="userSpaceOnUse">
      <stop offset="0" stop-color="#fcae08"/>
      <stop offset="1" stop-color="#fc5608"/>
    </linearGradient>
    <linearGradient id="Degradado_sin_nombre_40" data-name="Degradado sin nombre 40" x1="533.59" y1="450.69" x2="533.59" y2="503.98" gradientTransform="translate(606.85) rotate(-180) scale(1 -1)" gradientUnits="userSpaceOnUse">
      <stop offset="0" stop-color="#683c11"/>
      <stop offset="1" stop-color="#963305"/>
    </linearGradient>
    <radialGradient id="radial-gradient" cx="953.99" cy="1967.72" fx="953.99" fy="1967.72" r="36.92" gradientTransform="translate(1097.33 -1283.94) rotate(-179.19) scale(1 -1)" gradientUnits="userSpaceOnUse">
      <stop offset="0" stop-color="#fff8c9"/>
      <stop offset=".12" stop-color="#f9eeb7"/>
      <stop offset=".35" stop-color="#ecd58b"/>
      <stop offset=".37" stop-color="#ebd386"/>
      <stop offset=".69" stop-color="#cb6c1e"/>
      <stop offset="1" stop-color="#774711"/>
    </radialGradient>
    <radialGradient id="radial-gradient-2" cx="964.7" cy="1952.65" fx="964.7" fy="1952.65" r="36.92" xlink:href="#radial-gradient"/>
    <linearGradient id="Degradado_sin_nombre_85" data-name="Degradado sin nombre 85" x1="53.9" y1="125.65" x2="53.9" y2="177.12" gradientTransform="translate(606.85) rotate(-180) scale(1 -1)" gradientUnits="userSpaceOnUse">
      <stop offset="0" stop-color="#a60940"/>
      <stop offset="1" stop-color="#bd436c"/>
    </linearGradient>
    <linearGradient id="Degradado_sin_nombre_79" data-name="Degradado sin nombre 79" x1="73.55" y1="130.95" x2="73.55" y2="179.02" gradientTransform="translate(610.05 -2.03) rotate(179.83) scale(1 -1)" gradientUnits="userSpaceOnUse">
      <stop offset="0" stop-color="#d60b52"/>
      <stop offset="1" stop-color="#ed5488"/>
    </linearGradient>
  </defs>
  <g class="cls-17">
    <g id="Layer_2" data-name="Layer 2">
      <g id="Layer_1-2" data-name="Layer 1">
        <g>
          <path class="cls-5" d="m468.56,499.55l46.59,26.9,92.74-53.55v-107.09s0-35.7,0-35.7l-18.27-3.58c-4.3-17.71-12.62-29.31-22.76-29.9-5.46-.36-10.68,2.48-15.33,7.68-3.87-13.46-10.6-22.23-19.11-23.23-16.41-1.81-32.78,25.25-37.1,61.89-.68,5.73-.98,11.44-.98,17l-10.11,5.84-15.67,133.74Zm80.9-194.74c-5.01,6.79-9.19,16.48-12.02,28.06l-39.75,22.95c.06-4.89.33-9.87.92-14.88,3.96-33.59,19.25-60.6,33.48-59.27.09,0,.17.02.26.03,7.63.9,13.72,9.76,17.1,23.11Zm.97,4.31c.92,4.67,1.53,9.78,1.8,15.22l-10.93,6.31c2.38-8.52,5.52-15.89,9.13-21.53Zm36.16,14.38l-2.52-.49-6.8-13.12-22.11,12.76c-.37-6.11-1.16-11.81-2.35-16.92,4.36-5.59,9.22-8.77,14.16-8.46,8.45.5,15.6,10.74,19.62,26.24Zm-9.32,22.08l-40.72,23.51h0l40.72-23.51h0Zm-61.83,35.7l18.15-10.48h0l-18.15,10.48Z"/>
          <g>
            <path class="cls-32" d="m495.97,356.84c-.76-.07-1.36-.71-1.37-1.49-.06-5.98.28-12.15,1.01-18.33,4.32-36.64,20.69-63.7,37.1-61.89,14.68,1.73,24.16,26.5,22.53,58.88-.04.84-.75,1.47-1.58,1.44-.82-.06-1.48-.75-1.43-1.59,1.52-30.26-7.02-54.21-19.87-55.73-.09-.01-.17-.02-.26-.03-14.23-1.32-29.52,25.68-33.48,59.27-.71,6.05-1.05,12.09-.99,17.94,0,.84-.66,1.52-1.5,1.53-.05,0-.11,0-.16,0Z"/>
            <polygon class="cls-51" points="484.52 359.87 577.27 306.32 577.27 342.02 515.44 377.71 484.52 359.87"/>
            <polygon class="cls-46" points="484.52 359.87 507.58 364.79 515.44 377.71 515.44 520.5 468.85 493.61 484.52 359.87"/>
            <polygon class="cls-35" points="577.27 306.32 584.07 319.44 608.18 324.17 608.18 359.87 577.27 342.02 577.27 306.32"/>
            <polygon class="cls-11" points="515.44 377.71 608.18 324.17 608.18 466.96 515.44 520.5 515.44 377.71"/>
            <polygon class="cls-16" points="507.58 364.79 488.61 505.02 515.44 520.5 515.44 377.71 507.58 364.79"/>
            <path class="cls-32" d="m535.3,374.4c-.79,0-1.45-.61-1.51-1.41-.41-5.96-.43-12.14-.06-18.35,2.17-36.84,16.75-65.04,33.42-63.95,14.76.87,25.66,25.04,25.93,57.47,0,.84-.66,1.52-1.5,1.52h-.01c-.83,0-1.5-.67-1.51-1.5-.25-30.29-10.18-53.71-23.09-54.47-14.36-.88-28.22,27.14-30.23,61.11-.36,6.09-.34,12.14.06,17.97.06.83-.57,1.55-1.41,1.61-.04,0-.07,0-.1,0Z"/>
          </g>
          <g>
            <polygon class="cls-5" points="611.48 412.04 684.74 454.34 684.74 538.93 665.35 550.13 665.35 550.22 627.97 571.8 627.97 571.71 611.48 581.22 538.22 538.93 538.22 454.34 611.48 412.04"/>
            <g>
              <polygon class="cls-43" points="684.74 448.39 684.74 532.98 611.48 575.28 611.48 490.69 684.74 448.39"/>
              <polygon class="cls-8" points="611.48 575.28 538.22 532.98 538.22 448.39 611.48 490.69 611.48 575.28"/>
              <polygon class="cls-10" points="538.22 448.39 611.48 406.1 684.74 448.39 611.48 490.69 538.22 448.39"/>
              <g class="cls-15">
                <polygon class="cls-45" points="665.35 544.28 664.6 460.12 627.97 481.27 627.97 565.86 665.35 544.28"/>
                <polygon class="cls-45" points="627.97 481.27 608.72 470.28 645.35 449.13 664.6 460.12 627.97 481.27"/>
                <polygon class="cls-45" points="575.6 449.13 556.35 438.15 592.98 417 612.23 427.98 575.6 449.13"/>
              </g>
            </g>
          </g>
          <g>
            <polygon class="cls-5" points="264.62 632.82 405.69 551.38 515.58 605.19 515.58 612.12 515.58 614.82 369.06 699.41 259.17 635.97 259.17 633.27 264.62 632.82"/>
            <g>
              <polygon class="cls-38" points="264.62 625.89 405.69 544.44 511.49 605.53 515.58 605.19 515.58 607.89 369.06 692.48 259.17 629.03 259.17 626.34 264.62 625.89"/>
              <polygon class="cls-26" points="515.58 605.19 369.06 689.78 259.17 626.34 405.69 541.75 515.58 605.19"/>
              <g>
                <path class="cls-21" d="m471.19,606.32l-20,11.55c-.86.5-1.92.5-2.79,0l-20-11.55c-1.86-1.07-1.86-3.75,0-4.82l20-11.55c.86-.5,1.92-.5,2.79,0l20,11.55c1.86,1.07,1.86,3.75,0,4.82Z"/>
                <polygon class="cls-28" points="434.87 587.84 423.4 594.46 389.01 574.61 400.47 567.99 434.87 587.84"/>
              </g>
              <g>
                <path class="cls-21" d="m435.37,630.32l-20,11.55c-.86.5-1.92.5-2.79,0l-20-11.55c-1.86-1.07-1.86-3.75,0-4.82l20-11.55c.86-.5,1.92-.5,2.79,0l20,11.55c1.86,1.07,1.86,3.75,0,4.82Z"/>
                <polygon class="cls-28" points="399.05 611.84 387.59 618.46 353.19 598.6 364.66 591.98 399.05 611.84"/>
              </g>
              <g>
                <path class="cls-21" d="m397.66,654.1l-20,11.55c-.86.5-1.92.5-2.79,0l-20-11.55c-1.86-1.07-1.86-3.75,0-4.83l20-11.55c.86-.5,1.92-.5,2.79,0l20,11.55c1.86,1.07,1.86,3.75,0,4.83Z"/>
                <polygon class="cls-28" points="361.34 635.62 349.88 642.24 315.48 622.38 326.95 615.76 361.34 635.62"/>
              </g>
              <polyline class="cls-20" points="462.19 603.99 444.63 606.57 450.96 584.78"/>
              <polyline class="cls-20" points="429.5 625.33 411.94 627.91 418.26 606.12"/>
            </g>
          </g>
          <path class="cls-5" d="m313.74,443.74h.05v.05c-.93,2.59-19.58,55.02.05,66.33,2.89,1.71,6.22,3.62,9.69,5.63h.05s14,8.08,14,8.08l19.65,8.15,8.42-5.22v16.62c0,2.04-1.35,4.07-4.04,5.61l-53.45,30.89c-5.38,3.13-14.1,3.04-19.43-.15l-23.99-14.2-3.13-1.86c-.1.05-.2.1-.29.15-3.13-1.96-6.02-3.77-8.66-5.43l-1.18-.68c-.1-.1-.2-.2-.29-.24-5.53-3.48-9.25-5.83-9.25-5.83,0,0-23.45-12.43-23.45-56.63l95.26-51.25Z"/>
          <g>
            <polygon class="cls-34" points="423.84 81.47 394.71 68.99 368.78 83.11 394.01 97.68 423.84 81.47"/>
            <path class="cls-6" d="m313.74,436.86h.05v.05c-.93,2.59-19.58,55.02.05,66.33,2.89,1.71,6.22,3.62,9.69,5.63h.05s14,8.08,14,8.08l19.65,8.15,8.42-5.22v16.62c0,2.04-1.35,4.07-4.04,5.61l-53.45,30.89c-5.38,3.13-14.1,3.04-19.43-.15l-23.99-14.2-3.13-1.86c-.1.05-.2.1-.29.15-3.13-1.96-6.02-3.77-8.66-5.43l-1.18-.68c-.1-.1-.2-.2-.29-.24-5.53-3.48-9.25-5.83-9.25-5.83,0,0-23.45-12.43-23.45-56.63l95.26-51.25Z"/>
            <path class="cls-34" d="m369.66,401.58c21.47-12.27,39.04-42.54,39.04-67.27V95.44c0-24.73-17.6-34.98-39.11-22.78L103.56,223.6c-21.51,12.2-39.11,42.42-39.11,67.15v240.27c0,24.73,17.57,34.92,39.04,22.65l266.17-152.1Z"/>
            <path class="cls-34" d="m100.09,566.39l-23.07-9.6c-2.81-1.72-5.83-10.07-5.83-13.37v-25.67s36.77,18.74,36.77,18.74l-7.87,29.89Z"/>
            <path class="cls-36" d="m224.94,471.21c0,44.2,16.99,56.63,16.99,56.63,0,0,3.72,2.35,9.25,5.83.1.05.2.15.29.24l1.18.69c2.64,1.66,5.53,3.48,8.66,5.43.1-.05.2-.1.29-.15l3.13,1.86,23.99,14.2c5.33,3.18,14.05,3.28,19.43.15l53.45-30.89c5.38-3.08,5.38-8.13,0-11.26l-24.03-13.9-14-8.08h-.05c-3.48-2.01-6.8-3.92-9.69-5.63-19.63-11.31-.98-63.73-.05-66.33v-.05s-.05,0-.05,0l-88.79,51.25Z"/>
            <path class="cls-14" d="m224.94,471.21c0,44.2,16.99,56.63,16.99,56.63,0,0,3.72,2.35,9.25,5.83.1.05.2.15.29.24l1.18.69c2.64,1.66,5.53,3.48,8.66,5.43.1-.05.2-.1.29-.15l3.13,1.86,72.84-41.7-14-8.08h-.05c-3.48-2.01-6.8-3.92-9.69-5.63-19.63-11.31-.98-63.73-.05-66.33l-.05-.05-88.79,51.25Z"/>
            <path class="cls-7" d="m88.53,300.59v240.52c0,24.75,17.55,34.99,39.04,22.67l246.99-141.1,19.47-11.14c21.49-12.27,39.1-42.59,39.1-67.35V105.08c0-24.75-17.67-34.99-39.16-22.79l-173.96,98.68-92.38,52.44c-21.49,12.21-39.1,42.42-39.1,67.18Z"/>
            <path class="cls-37" d="m88.53,300.59v223.47s344.6-199.33,344.6-199.33V105.08c0-24.75-17.67-34.99-39.16-22.79L127.63,233.41c-21.49,12.21-39.1,42.42-39.1,67.18Z"/>
            <path class="cls-19" d="m416.25,314.99V105.08c0-3.33-.49-11.06-5.08-11.06-1.37,0-4.35.38-8.86,2.95L135.27,250.65c-17.8,10.3-29.86,31.22-29.86,49.94v194.2s310.84-179.8,310.84-179.8Z"/>
            <path class="cls-3" d="m220.01,180.98l154.55,241.7,19.47-11.14c21.49-12.27,39.1-42.59,39.1-67.35V105.08c0-24.75-17.67-34.99-39.16-22.79l-173.96,98.68Z"/>
            <polygon class="cls-30" points="328.96 344.3 200.68 418.39 200.68 270.5 329.21 197.35 328.96 344.3"/>
            <polygon class="cls-49" points="356.09 359.51 227.8 433.59 227.8 285.7 356.33 212.55 356.09 359.51"/>
            <path class="cls-2" d="m263.44,321.63l6.13,18.6c.82,2.48,3.56,3,6.63,1.22l6.94-4.04,24.9-14.48,4.63-2.69c1.57-.91,3.05-.47,3.25,1.02.19,1.42-.91,3.27-2.44,4.16l-31.14,18.07c-4.37,2.54-7.86,8.21-7.66,12.78.21,4.86,4.43,6.53,9.24,3.4,3.94-2.58,6.91-7.61,6.99-11.79.02-1.35-.25-2.49-.74-3.36l9.46-5.47c-.2.99-.25,1.96-.13,2.88.57,4.67,5.13,6.19,9.98,3.03,4.08-2.64,6.87-7.79,6.51-11.86-.11-1.19-.47-2.18-1.01-2.95,4.31-2.79,7.09-8.13,6.28-12.1-.7-3.42-3.85-4.73-7.46-3.49l2.44-21.5,1.6-14.05,7.83-4.64c1.15-.68,1.89-1.95,1.66-2.82l-.04-.16c-.23-.87-1.34-1.02-2.47-.35l-5.9,3.5-3.08,1.83c-1.2.71-2.12,1.96-2.27,3.08l-.91,6.97c-1.05.09-2.2.48-3.36,1.16l-40.03,23.67c-1.82,1.08-3.57,2.83-4.71,4.8-1.19,2.07-1.6,4.1-1.11,5.58Zm21.97,28.41c.11,1.49-1,3.42-2.48,4.27-1.48.85-2.76.31-2.85-1.19-.09-1.49,1.03-3.38,2.48-4.22,1.47-.85,2.74-.33,2.85,1.15Zm24.96-14.43c.23,1.43-.81,3.33-2.31,4.19-1.5.86-2.89.38-3.09-1.07-.2-1.43.84-3.3,2.31-4.15,1.49-.86,2.86-.4,3.09,1.03Zm.76-39.58h0s-6.09,3.6-6.09,3.6l.47-5.47,4.5-2.66c.59-.35,1.01-.28,1.19-.2.2.07.5.29.43.87l-.5,3.85h0Zm-1.33,10.53l-5.63,3.3.46-5.38,5.87-3.45-.7,5.53Zm-2.52,11.54h0s-4.01,2.33-4.01,2.33l.47-5.41,5.39-3.15-.56,4.39c-.08.7-.61,1.45-1.29,1.84h0Zm-12.94,7.54l-.53-4.81,4.72-2.76-.55,5.45-3.65,2.13h.01Zm-1.59-14.2l6.82-4.01-.54,5.42-5.75,3.37-.53-4.79Zm-1.02-9.17l8.87-5.24-.55,5.51-7.78,4.58-.54-4.86Zm-8.09,24.5l5.07-2.96.45,4.85-4.06,2.37-1.46-4.25Zm-2.87-8.29l7.06-4.15.45,4.83-6.05,3.54-1.46-4.22Zm-1.31-3.81l-1.48-4.28,8.98-5.3.46,4.9-7.96,4.69Zm-6.18,18.18l5.2-3.04,1.39,4.29-3.94,2.3c-.69.4-1.3.29-1.49-.26l-1.17-3.29Zm-2.9-8.26l5.41-3.18,1.38,4.27-5.3,3.11-1.48-4.2Zm-2.14-7.97c.14-.27.47-.77,1.05-1.11l3.87-2.28,1.39,4.33-5.5,3.24-1.04-2.94c-.16-.42.07-.95.23-1.23Z"/>
            <g>
              <polygon class="cls-34" points="410.46 92.04 352.23 125.61 410.45 159.16 468.6 125.59 410.46 92.04"/>
              <polygon class="cls-27" points="352.27 125.59 294.04 159.15 352.3 192.74 410.45 159.16 352.27 125.59"/>
              <polygon class="cls-34" points="294.74 159.13 236.51 192.7 294.14 226.31 352.3 192.74 294.74 159.13"/>
              <polygon class="cls-27" points="236.55 192.68 178.32 226.25 235.91 259.84 294.14 226.31 236.55 192.68"/>
              <polygon class="cls-34" points="178.37 226.22 120.13 259.79 177.68 293.45 235.89 259.9 178.37 226.22"/>
              <path class="cls-39" d="m468.6,125.59v50.31c0,10.39-5.54,19.99-14.53,25.19h0c-19.4,11.22-43.66-2.78-43.66-25.19l.03-16.73,58.16-33.58Z"/>
              <path class="cls-50" d="m410.42,159.16v50.31c0,10.39-5.54,19.99-14.53,25.19h0c-19.4,11.22-43.66-2.78-43.66-25.19l.03-16.73,58.16-33.58Z"/>
              <path class="cls-31" d="m352.23,192.74v50.31c0,10.39-5.54,19.99-14.53,25.19h0c-19.4,11.22-43.66-2.78-43.66-25.19l.03-16.73,58.16-33.58Z"/>
              <path class="cls-18" d="m294.04,226.31v50.31c0,10.39-5.54,19.99-14.53,25.19h0c-19.4,11.22-43.66-2.78-43.66-25.19l.03-16.73,58.16-33.58Z"/>
              <path class="cls-44" d="m235.85,259.84v50.31c0,10.39-5.54,19.99-14.53,25.19h0c-19.4,11.22-43.66-2.78-43.66-25.19l.03-16.73,58.16-33.58Z"/>
            </g>
          </g>
          <g>
            <path class="cls-41" d="m1.44,394.71l4.18-2.81c.26-.27.58-.47.92-.62h0c.81-.36,1.78-.39,2.67.12l140.61,81.18c.91.53,1.48,1.5,1.48,2.56v112.78s0,7.29,0,7.29v1.36s-.67.48-.67.48c-.34.41-.77.73-1.27.91l-4.29,3.08-.56-4.64L6.31,516.61c-.91-.53-1.48-1.5-1.48-2.56l-.05-114.03h0s-3.34-5.32-3.34-5.32Z"/>
            <path class="cls-25" d="m146.52,598.49v-120.07c0-1.06-.56-2.03-1.48-2.56L4.43,394.68c-1.97-1.14-4.43.29-4.43,2.56l.06,120.1c0,1.05.56,2.03,1.48,2.56l140.55,81.15c1.97,1.14,4.43-.28,4.43-2.56Z"/>
            <polygon class="cls-40" points="146.52 495.79 146.52 519.08 .01 434.49 0 411.2 146.52 495.79"/>
            <polygon class="cls-24" points="101.83 506.53 101.83 515.61 44.69 482.62 44.69 473.54 101.83 506.53"/>
          </g>
          <g>
            <path class="cls-5" d="m70.05,685.58h-.05s.11-5.62.11-5.62h.06c-.03-.59-.11-1.18-.1-1.78.26-18.34,20.9-32.92,46.09-32.56,24.97.35,45.03,15.26,45.12,33.39h.04s-.13,9.46-.13,9.46h-.03c-.49,18.19-21.01,32.61-46.06,32.25-25.19-.35-45.41-15.51-45.15-33.85,0-.44.08-.86.11-1.29Z"/>
            <g>
              <path class="cls-1" d="m69.95,678.17c-.07,4.91,1.33,9.6,3.94,13.79,6.98,11.6,22.74,19.81,41.22,20.06h.93c24.61,0,44.63-14.25,45.13-32.23l.14-8.74v-.72s-1.79,0-1.79,0c-.54-1.43-1.22-2.83-2.01-4.19-1.4-2.47-3.22-4.76-5.41-6.84-.39-.47-.9-.93-1.4-1.33-8.24-7.38-20.67-12.18-34.67-12.36-14.76-.21-27.97,4.73-36.42,12.54-2.22,2.04-4.12,4.3-5.62,6.73v.04c-1.29,2.01-2.26,4.12-2.94,6.34h-.97s-.11,5.62-.11,5.62h.07c-.04.43-.11.86-.11,1.29Z"/>
              <path class="cls-29" d="m70.06,669.5c0,.61,0,1.18.07,1.76.75,13.29,12.18,24.61,28.29,29.51,5.16,1.58,10.85,2.51,16.8,2.58,25.07.36,45.66-14.08,46.09-32.31v-.72c-.07-9.49-5.59-18.12-14.43-24.21-8.02-5.55-18.8-9.03-30.73-9.17-25.18-.36-45.81,14.22-46.09,32.56Z"/>
              <path class="cls-33" d="m73.48,669.54c-.24,16.97,18.47,30.99,41.78,31.32,23.32.33,42.41-13.16,42.64-30.12.24-16.97-18.46-30.99-41.77-31.32-23.31-.33-42.41,13.16-42.65,30.13Z"/>
              <path class="cls-13" d="m73.48,669.54c-.24,16.97,18.47,30.99,41.78,31.32,23.32.33,42.41-13.16,42.64-30.12.24-16.97-18.46-30.99-41.77-31.32-23.31-.33-42.41,13.16-42.65,30.13Z"/>
              <path class="cls-29" d="m76.03,670.04c-.23,16.2,17.33,29.58,39.23,29.89,21.9.31,39.84-12.57,40.07-28.77.23-16.2-17.34-29.58-39.23-29.89-21.9-.31-39.84,12.57-40.07,28.76Z"/>
            </g>
            <path class="cls-5" d="m69.95,678.17c-.07,4.91,1.33,9.6,3.94,13.79,6.63,4.58,15.08,7.74,24.53,8.81,2.04.21,4.08.36,6.2.39,2.72.04,5.37-.11,7.95-.39,1.83-.21,3.62-.5,5.34-.86h.07c18.59-3.87,32.27-16.19,32.7-31.02h.04s.11-9.46.11-9.46h-.04c0-.5-.04-1-.07-1.47,0-.32-.04-.68-.07-1l-.04-.04c-.14-1.65-.47-3.26-.97-4.84h-.04c-.61-2.08-1.54-4.08-2.72-5.98-8.02-5.55-18.8-9.03-30.73-9.17-25.18-.36-45.81,14.22-46.09,32.56,0,.61,0,1.18.07,1.76h-.04s-.11,5.62-.11,5.62h.07c-.04.43-.11.86-.11,1.29Z"/>
            <g>
              <path class="cls-1" d="m59.57,661.67h-.05s.11-5.62.11-5.62h.95c4.6-14.96,23.05-25.96,44.98-25.65,20.85.29,38.25,10.73,43.5,24.71l1.78-.02-.13,9.46h-.03c-.49,18.19-21.01,32.61-46.06,32.25-25.19-.35-45.41-15.51-45.15-33.85,0-.44.08-.86.11-1.29Z"/>
              <path class="cls-29" d="m59.58,654.27c-.26,18.34,19.96,33.5,45.15,33.85,25.2.36,45.83-14.22,46.09-32.56.26-18.34-19.96-33.5-45.15-33.85-25.2-.36-45.83,14.22-46.09,32.56Z"/>
              <path class="cls-33" d="m62.99,654.31c-.24,16.97,18.47,30.99,41.78,31.32,23.32.33,42.41-13.16,42.64-30.12.24-16.97-18.46-30.99-41.77-31.32-23.31-.33-42.41,13.16-42.65,30.13Z"/>
              <path class="cls-12" d="m62.99,654.31c-.24,16.97,18.47,30.99,41.78,31.32,23.32.33,42.41-13.16,42.64-30.12.24-16.97-18.46-30.99-41.77-31.32-23.31-.33-42.41,13.16-42.65,30.13Z"/>
              <path class="cls-29" d="m65.55,654.81c-.23,16.2,17.33,29.58,39.23,29.89,21.9.31,39.84-12.57,40.07-28.77.23-16.2-17.34-29.58-39.23-29.89-21.9-.31-39.84,12.57-40.07,28.76Z"/>
            </g>
          </g>
          <g>
            <path class="cls-47" d="m511.11,107.49c.34,1.99.84,4.08,1.48,6.23l-1.08,7.98,6.43,6.16c3.37,7.61,7.54,15.29,11.49,22.1l1.48,28.93,19.57-7.95c19.13-9.3,30.58-22.16,36.72-30.96,2.39-2.8,4.35-6.1,5.79-9.84,0-.03.03-.07.03-.07,1.08-2.83,1.92-5.93,2.39-9.23,3.27-22.9-10.68-49.21-32.2-58.51-8.22-3.57-16.24-4.04-23.21-2.02-6.84.27-13.07,2.76-18.05,7.11l-3.33,1.35-.34,2.39c-4.38,5.39-7.31,12.6-8.08,21.22-.13,1.45-.2,2.9-.2,4.34,0,3.6.4,7.21,1.11,10.75Zm42.41-20.48c10.31,4.14,17.31,16.64,15.87,27.79-1.45,11.01-10.58,16.98-20.68,13.41-10.31-3.64-17.92-15.97-16.71-27.55,1.21-11.76,10.98-17.92,21.52-13.64Z"/>
            <path class="cls-42" d="m498.48,114.22h0c4.34,24.83,32.45,64.67,32.45,64.67,19.12-9.3,30.57-22.16,36.71-30.97,2.37-2.79,4.33-6.09,5.79-9.84.01-.02.02-.05.02-.05h0c1.1-2.83,1.91-5.92,2.39-9.24,3.27-22.91-10.68-49.2-32.2-58.5-22.64-9.78-43.77,3.28-46.06,28.85-.45,5.03-.1,10.12.9,15.09Zm20.88-6.83c1.22-11.77,10.97-17.92,21.53-13.66,10.3,4.16,17.29,16.64,15.84,27.81-1.43,11.01-10.58,16.98-20.67,13.4-10.32-3.66-17.91-15.96-16.7-27.56Z"/>
          </g>
          <g>
            <path class="cls-23" d="m165.75,53.07c-4.35,32,8.97,60.23,29.74,63.05,20.77,2.82,41.13-20.84,45.47-52.84C245.31,31.28,231.99,3.05,211.22.23c-20.77-2.82-41.13,20.84-45.47,52.84Z"/>
            <ellipse class="cls-2" cx="212.45" cy="59.41" rx="58.48" ry="37.95" transform="translate(125 261.94) rotate(-82.27)"/>
            <path class="cls-9" d="m174.84,54.31c-4.34,32,8.97,60.23,29.74,63.05.86.12,1.72.19,2.58.2-19.31-4.68-31.37-31.88-27.2-62.55,4.16-30.67,23.04-53.67,42.9-53.03-.82-.22-1.68-.38-2.54-.5-20.77-2.82-41.13,20.84-45.47,52.84Z"/>
            <path class="cls-2" d="m179.95,55c-4.35,32,8.97,60.23,29.74,63.05,20.77,2.82,41.13-20.84,45.47-52.84,4.35-32-8.97-60.23-29.74-63.05-20.77-2.82-41.13,20.84-45.47,52.84Z"/>
            <g class="cls-48">
              <path class="cls-4" d="m204.13,8.39l20.73,107.12c10.7-5.04,20.15-16.64,25.74-31.87L231.51,3.8c-1.95-.81-3.97-1.35-6.08-1.63-7.39-1-14.73,1.35-21.3,6.23Z"/>
              <path class="cls-4" d="m188.94,26.71l12.29,88.59c2.65,1.41,5.48,2.34,8.46,2.75,2.45.33,4.9.29,7.32-.1l-20.04-102.92c-3,3.38-5.69,7.3-8.04,11.68Z"/>
            </g>
            <path class="cls-34" d="m206.92,117.5c.91.25,1.82.42,2.77.55,20.77,2.82,41.13-20.84,45.47-52.84,4.34-32-8.97-60.23-29.74-63.05-.94-.13-1.87-.21-2.81-.21,19.16,4.83,31.12,31.94,26.97,62.5-4.15,30.56-22.9,53.49-42.66,53.04Z"/>
            <polyline class="cls-22" points="230.15 31.15 217.31 61.9 198.71 68.44"/>
          </g>
        </g>
      </g>
    </g>
  </g>
</svg>