<?xml version="1.0" encoding="UTF-8"?>
<svg id="Layer_2" data-name="Layer 2" xmlns="http://www.w3.org/2000/svg" xmlns:xlink="http://www.w3.org/1999/xlink" viewBox="0 0 958.66 949">
  <defs>
    <style>
      .cls-1 {
        fill: url(#linear-gradient-2);
      }

      .cls-2 {
        fill: #a557e8;
      }

      .cls-3 {
        clip-path: url(#clippath);
      }

      .cls-4 {
        fill: none;
      }

      .cls-5 {
        fill: url(#linear-gradient-3);
      }

      .cls-6 {
        fill: url(#linear-gradient);
      }
    </style>
    <clipPath id="clippath">
      <rect class="cls-4" width="958.66" height="949"/>
    </clipPath>
    <linearGradient id="linear-gradient" x1="-109.84" y1="324.21" x2="177.67" y2="324.21" gradientUnits="userSpaceOnUse">
      <stop offset="0" stop-color="#4a96e0"/>
      <stop offset="1" stop-color="#8e2de2"/>
    </linearGradient>
    <linearGradient id="linear-gradient-2" x1="-67.8" y1="1006.76" x2="219.72" y2="1006.76" xlink:href="#linear-gradient"/>
    <linearGradient id="linear-gradient-3" x1="880.59" y1="480.53" x2="1063.16" y2="480.53" xlink:href="#linear-gradient"/>
  </defs>
  <g id="Layer_1-2" data-name="Layer 1">
    <g class="cls-3">
      <path class="cls-2" d="m461.47,1206.23c27.17,24.76,70.75,21.43,95.39-5.79,0,0,104.18-115.08,104.18-115.08,8.22-9.09,20.45-5.38,27.62,2.95,5.07,4.49,5.49,12.2.95,17.22-26.77,29.57-24.23,75.45,5.64,101.95h0c29.87,26.5,76.22,23.99,102.99-5.58l245.23-270.89c5.98-6.6,16.23-7.16,22.89-1.24,6.67,5.92,7.23,16.06,1.25,22.66l-148.26,163.78c-22.5,24.86-24.28,61.23-6.53,87.94-25.26,29.24-76.67,67.74-35.87,107.4,18.99,17.31,49.47,14.98,66.7-4.05l72.85-80.47c4.18-4.62,11.35-5,16.01-.87,4.94,3.35,8.8,9.8,3.97,14.97-18.72,20.68-16.94,52.76,3.94,71.29h0c20.89,18.53,53.3,16.77,72.01-3.9l171.48-189.42c4.18-4.62,11.35-5,16.01-.87,4.66,4.14,5.06,11.23.88,15.85l-103.67,114.52c-19.82,21.9-16.66,56.58,7.84,74.42,21.3,15.51,51.25,11.59,68.9-7.91,0,0,282.31-311.85,282.31-311.85,43.83-50.67-30.66-116.21-76.74-66.52-4.33,6.41-12.74,10.21-19.22,4.41h0c-4.66-4.14-5.06-11.23-.88-15.85,0,0,116.06-128.2,116.06-128.2,18.72-20.68,16.94-52.76-3.94-71.29-20.89-18.53-53.3-16.77-72.01,3.9l-289.35,319.63c-9.79,11.12-28.4-5.12-18.16-16.11,4.49-5.18,10.92-11.3,13.94-17.17,0,0,226.96-250.71,226.96-250.71,64.96-76.71-51.33-169.04-114.34-90.05-5.97,6.6-16.22,7.15-22.89,1.24-6.67-5.92-7.23-16.06-1.25-22.66,0,0,165.98-183.34,165.98-183.34,26.77-29.57,24.23-75.45-5.64-101.95h0c-29.87-26.5-76.22-23.99-102.99,5.58,0,0-413.81,457.11-413.81,457.11-5.98,6.6-16.23,7.16-22.89,1.24-7.94-5.69-9.82-16.93-3.08-24.28,75.79-64.35-17.18-168.3-88.42-98.84,0,0-366.5,404.85-366.5,404.85-24.11,26.64-22.04,67.84,4.46,92Z"/>
      <path class="cls-6" d="m136.59,154.97l-58.07,57.49c-2.09,2.07-5.48,2.07-7.57,0h0c-2.99-2.83-1.28-6.94,1.61-9.09,8.83-8.74,9.92-22.82,1.99-32.37-9.13-10.98-25.73-11.56-35.65-1.74,0,0-141.26,139.83-141.26,139.83-22.41,22.69,10.56,55.95,33.67,34.1,0,0,51.87-51.35,51.87-51.35,2.09-2.07,5.48-2.07,7.57,0h0c13.29,2.93-86.49,89.56-85.8,92.43-9.37,9.27-9.37,24.44,0,33.71h0c9.37,9.27,24.69,9.27,34.06,0h0c4.86-4.36,11.94,4.9,7.23,8.96,0,0-36.45,36.08-36.45,36.08-8.62,8.54-8.94,22.82-.21,31.24,8.52,8.21,22.29,8.15,30.72-.21,0,0,128.23-126.94,128.23-126.94,21.84-24.5-14.44-52.98-34.52-27.07-4.95,5.05-13.23-3.18-8.14-8.06,0,0,144.78-143.32,144.78-143.32,9.37-9.27,9.37-24.44,0-33.72h0c-9.37-9.27-24.69-9.27-34.06,0Z"/>
      <path class="cls-1" d="m178.63,837.52l-58.07,57.49c-2.09,2.07-5.48,2.07-7.57,0h0c-2.99-2.83-1.28-6.94,1.61-9.09,8.83-8.74,9.92-22.82,1.99-32.37-9.13-10.98-25.73-11.56-35.65-1.74l-141.26,139.83c-22.41,22.69,10.56,55.95,33.67,34.1,0,0,51.87-51.35,51.87-51.35,2.09-2.07,5.48-2.07,7.57,0h0c13.29,2.93-86.49,89.56-85.8,92.43-9.37,9.27-9.37,24.44,0,33.71h0c9.37,9.27,24.69,9.27,34.06,0h0c4.87-4.36,11.94,4.9,7.23,8.96,0,0-36.45,36.08-36.45,36.08-8.62,8.54-8.94,22.82-.21,31.24,8.52,8.22,22.29,8.15,30.72-.21l128.23-126.94c21.84-24.5-14.44-52.98-34.52-27.07-4.95,5.05-13.23-3.18-8.14-8.06,0,0,144.78-143.32,144.78-143.32,9.37-9.27,9.37-24.44,0-33.72h0c-9.37-9.27-24.69-9.27-34.06,0Z"/>
      <path class="cls-2" d="m546.49,386.18l-53.09,52.56c-1.91,1.89-5.01,1.89-6.92,0h0c-2.73-2.59-1.17-6.35,1.47-8.31,8.07-7.99,9.07-20.87,1.82-29.59-8.35-10.04-23.53-10.57-32.6-1.59l-129.14,127.84c-20.49,20.74,9.66,51.15,30.78,31.18,0,0,47.42-46.95,47.42-46.95,1.91-1.89,5.01-1.89,6.92,0h0c11.93,2.96-78.98,81.74-78.44,84.51-8.57,8.47-8.57,22.35,0,30.82h0c8.56,8.48,22.58,8.48,31.14,0h0c4.45-3.98,10.92,4.48,6.61,8.19,0,0-33.33,32.99-33.33,32.99-7.88,7.8-8.18,20.86-.19,28.56,7.79,7.51,20.38,7.45,28.09-.19l117.23-116.05c19.96-22.4-13.2-48.44-31.56-24.75-4.52,4.62-12.09-2.91-7.44-7.37,0,0,132.37-131.03,132.37-131.03,8.56-8.48,8.56-22.35,0-30.83h0c-8.56-8.48-22.58-8.48-31.14,0Z"/>
      <path class="cls-5" d="m1037.07,373.01l-36.87,36.5c-1.33,1.31-3.48,1.31-4.81,0h0c-5.01-5.24,13.31-10.78,2.28-26.32-5.8-6.97-16.34-7.34-22.64-1.1l-89.69,88.79c-14.33,14.13,6.97,35.64,21.38,21.65,0,0,32.94-32.6,32.94-32.6,1.33-1.31,3.48-1.31,4.81,0h0c8.19,2.17-54.8,56.71-54.48,58.69-5.95,5.89-5.95,15.52,0,21.41h0c5.95,5.89,15.68,5.89,21.63,0h0c3.09-2.77,7.58,3.11,4.59,5.69,0,0-23.14,22.91-23.14,22.91-12.91,12.81,6.14,32.45,19.38,19.7,0,0,81.42-80.6,81.42-80.6,5.47-5.42,5.68-14.49.13-19.84-6.58-6.45-16.73-4.26-22.05,2.65-3.14,3.21-8.4-2.02-5.17-5.12,0,0,91.93-91,91.93-91,5.95-5.89,5.95-15.52,0-21.41h0c-5.95-5.89-15.68-5.89-21.63,0Z"/>
      <path class="cls-2" d="m1040.9-128.06l-36.87,36.5c-1.33,1.31-3.48,1.31-4.81,0h0c-5.01-5.24,13.31-10.78,2.28-26.32-5.8-6.97-16.34-7.34-22.64-1.1l-89.69,88.79c-14.33,14.13,6.97,35.64,21.38,21.65,0,0,32.94-32.6,32.94-32.6,1.33-1.31,3.48-1.31,4.81,0h0c8.19,2.17-54.8,56.71-54.48,58.69-5.95,5.89-5.95,15.52,0,21.41h0c5.95,5.89,15.68,5.89,21.63,0h0c3.09-2.77,7.58,3.11,4.59,5.69,0,0-23.14,22.91-23.14,22.91-12.91,12.81,6.14,32.45,19.38,19.7,0,0,81.42-80.6,81.42-80.6,5.47-5.42,5.68-14.49.13-19.84-6.58-6.45-16.73-4.26-22.05,2.65-3.14,3.21-8.4-2.02-5.17-5.12,0,0,91.93-91,91.93-91,5.95-5.89,5.95-15.52,0-21.41h0c-5.95-5.89-15.68-5.89-21.63,0Z"/>
    </g>
  </g>
</svg>